# xmcd CD database file
#
# Track frame offsets:
#	150
#	16130
#	29342
#
# Disc length: 603 seconds
#
# Revision: 0
# Processed by: cddbd v1.5.1PL0 Copyright (c) Steve Scherf et al.
# Submitted via: CDex 1.51
#
DISCID=17025903
DTITLE=川澄綾子(結城レナ)・他 - 終りのない夢に向って
DYEAR=1999
DGENRE=Anime
TTITLE0=終りのない夢に向って
TTITLE1=I WANNA KNOW
TTITLE2=終りのない夢に向って(KARAOKE Version)
EXTD=YEAR: 1999
EXTT0=
EXTT1=
EXTT2=
PLAYORDER=
